<?xml version="1.0" encoding="UTF-8" standalone="no"?>
<svg
   viewBox="0 0 512 512"
   version="1.1"
   id="svg1"
   xmlns="http://www.w3.org/2000/svg"
   xmlns:svg="http://www.w3.org/2000/svg"
   xmlns:rdf="http://www.w3.org/1999/02/22-rdf-syntax-ns#"
   xmlns:cc="http://creativecommons.org/ns#"
   xmlns:dc="http://purl.org/dc/elements/1.1/">
  <title
     id="title5">lib-bash</title>
  <defs
     id="defs1" />
  <rect
     width="512"
     height="512"
     rx="50"
     ry="50"
     fill="#222"
     id="rect1" />
  <text
     xml:space="preserve"
     style="font-size:341.333px;line-height:1.25;font-family:sans-serif;letter-spacing:0px;word-spacing:0px;display:none;fill:#aaff55;fill-opacity:1"
     x="31.448797"
     y="380.16653"
     id="text3"><tspan
       id="tspan3"
       x="31.448797"
       y="380.16653"
       style="font-style:normal;font-variant:normal;font-weight:600;font-stretch:normal;font-size:341.333px;font-family:'Inter Display';-inkscape-font-specification:'Inter Display Semi-Bold';fill:#aaff55;fill-opacity:1">~$</tspan></text>
  <path
     style="font-weight:600;font-size:341.333px;line-height:1.25;font-family:'Inter Display';-inkscape-font-specification:'Inter Display Semi-Bold';letter-spacing:0px;word-spacing:0px;fill:#aaff55;stroke:#f3ffe5;fill-opacity:1;stroke-opacity:0.25;stroke-width:9;stroke-dasharray:none;stroke-linejoin:round"
     d="m 53.948776,285.49996 q -0.999999,-32.8333 13.666653,-48.83329 14.666653,-16.16665 36.833301,-16.16665 11.99999,0 22.33331,5 10.33332,4.99999 23.66664,16.66665 7.66666,6.66666 12.66666,9.99999 4.99999,3.16666 11.49999,3.16666 9.16666,0 14.99998,-6.99999 5.83333,-7.16666 5.5,-21.66665 h 34.3333 q 0.83333,32.66664 -13.99999,48.83329 -14.83332,15.99998 -36.66663,15.99998 -12.16666,0 -22.66664,-4.99999 -10.33333,-5.16666 -23.33332,-16.66665 -8.16665,-7 -12.99998,-9.99999 -4.66667,-3 -10.99999,-3 -8.999995,0 -14.999989,6.66666 -5.833328,6.49999 -5.499995,21.99998 z M 346.78183,416.99983 v -33.49997 q -38.99997,-3.83333 -60.83328,-25.8333 -21.83331,-22.16665 -21.83331,-58.49995 h 43.16662 q 0.33334,18.83332 10.49999,30.83331 10.33333,11.99998 28.99998,15.49998 v -74.49993 l -5.33333,-1.16666 q -37.16663,-8.5 -54.83328,-25.16665 -17.66665,-16.66665 -17.66665,-42.83329 0,-30.49997 21.16664,-50.16662 21.16665,-19.83331 56.66662,-23.16664 V 95.00014 h 29.8333 v 33.8333 q 34.3333,4 54.16662,24.66664 19.99998,20.49998 20.99998,53.66662 h -41.8333 q -1.16666,-15.66665 -9.99999,-25.99998 -8.66666,-10.33332 -23.33331,-14.16665 v 70.33327 L 383.44846,239 q 38.66663,8.49999 56.66661,25.33331 17.99998,16.83332 17.99998,44.16663 0,31.8333 -21.83331,51.83328 -21.83331,19.99998 -59.66661,23.16664 v 33.49997 z m 29.8333,-70.99993 q 17.33332,-2.83333 27.49998,-11.99999 10.16665,-9.16666 10.16665,-22.83331 0,-11.99999 -8.83332,-19.83331 -8.66666,-7.83333 -28.83331,-13.33332 z m -29.8333,-115.83322 v -63.83327 q -15.16666,2.83333 -24.49998,11.83332 -9.16666,8.83332 -9.16666,21.49998 0,10.83332 7.83333,18.16665 7.83332,7.16666 25.83331,12.33332 z"
     id="path4"
     aria-label="~$" />
  <metadata
     id="metadata5">
    <rdf:RDF>
      <cc:Work
         rdf:about="">
        <dc:title>lib-bash</dc:title>
      </cc:Work>
    </rdf:RDF>
  </metadata>
</svg>
