<svg xmlns="http://www.w3.org/2000/svg" viewBox="0 0 512 512"><rect width="512" height="512" rx="50" ry="50" fill="#222"/><path d="M88.945-102.642L88.945-102.642Q77.183-107.798 68.965-109.812Q60.747-111.826 53.174-111.826L53.174-111.826Q43.989-111.826 33.838-106.187Q23.687-100.547 15.469-92.329L15.469-92.329L15.469-122.944Q23.525-131.646 33.596-135.996Q43.667-140.347 55.913-140.347L55.913-140.347Q65.742-140.347 75.249-138.333Q84.756-136.318 99.741-130.034L99.741-130.034Q111.665-124.878 119.802-122.944Q127.939-121.011 135.190-121.011L135.190-121.011Q144.697-121.011 154.768-126.570Q164.839-132.129 172.896-140.347L172.896-140.347L172.896-109.893Q165-101.353 155.010-96.841Q145.020-92.329 132.612-92.329L132.612-92.329Q122.944-92.329 113.438-94.343Q103.931-96.357 88.945-102.642ZM293.101 19.175L272.153 19.175L272.153-14.019Q252.173-14.341 235.334-17.644Q218.496-20.947 206.250-26.265L206.250-26.265L206.250-60.586Q218.657-54.785 236.865-50.112Q255.073-45.439 272.153-44.795L272.153-44.795L272.153-105.220Q248.789-113.115 234.207-121.655Q219.624-130.195 212.856-141.555Q206.089-152.915 206.089-168.867L206.089-168.867Q206.089-185.303 214.387-197.146Q222.686-208.989 237.590-215.918Q252.495-222.847 272.153-224.136L272.153-224.136L272.153-250.400L293.101-250.400L293.101-224.619Q310.986-224.136 326.213-220.671Q341.440-217.207 355.298-211.084L355.298-211.084L343.535-181.113Q331.450-185.947 318.398-189.009Q305.347-192.070 293.101-193.198L293.101-193.198L293.101-134.224Q312.759-127.778 328.147-120.366Q343.535-112.954 352.317-101.755Q361.099-90.557 361.099-72.510L361.099-72.510Q361.099-48.823 343.696-33.435Q326.294-18.047 293.101-14.985L293.101-14.985L293.101 19.175ZM293.101-97.485L293.101-46.084Q308.569-48.018 316.143-54.221Q323.716-60.425 323.716-70.415L323.716-70.415Q323.716-77.183 320.574-81.855Q317.432-86.528 310.745-90.234Q304.058-93.940 293.101-97.485L293.101-97.485ZM272.153-142.119L272.153-142.119L272.153-192.554Q262.808-191.587 256.362-188.687Q249.917-185.786 246.694-181.113Q243.472-176.440 243.472-169.995L243.472-169.995Q243.472-162.905 246.372-157.910Q249.272-152.915 255.637-149.209Q262.002-145.503 272.153-142.119Z" fill="#AF5" transform="translate(67.71599769592285, 371.61248779296875)"/></svg>